<svg width="63" height="63" viewBox="0 0 63 63" fill="none" xmlns="http://www.w3.org/2000/svg">
<path fill-rule="evenodd" clip-rule="evenodd" d="M20.6208 40.7257C15.3213 40.7915 10.0011 38.8053 5.96137 34.7656C-1.98712 26.8171 -1.98712 13.9099 5.96137 5.96137C13.9106 -1.98712 26.8171 -1.98712 34.7656 5.96137C38.8053 10.0011 40.7922 15.3213 40.7257 20.6208C36.8432 20.8444 33.0106 22.1208 29.694 24.4492C31.3235 20.7205 30.6144 16.2119 27.565 13.1626C23.5904 9.188 17.1372 9.188 13.1626 13.1626C9.188 17.1365 9.188 23.5897 13.1626 27.5643C16.2119 30.6137 20.7205 31.3235 24.4492 29.694C25.5802 29.1995 26.6398 28.4896 27.565 27.5643C31.2141 23.9153 35.9076 21.9415 40.6876 21.643C41.0277 21.6215 41.3684 21.609 41.7098 21.6042C47.0086 21.5384 52.3288 23.5246 56.3685 27.5643C64.3177 35.5128 64.3177 48.42 56.3685 56.3685C48.42 64.317 35.5135 64.317 27.565 56.3685C23.5253 52.3288 21.5384 47.0086 21.6049 41.7091C25.4874 41.4855 29.3193 40.2091 32.6366 37.8807C31.0071 41.6094 31.7162 46.118 34.7656 49.1673C38.7402 53.1419 45.1934 53.1419 49.168 49.1673C53.1419 45.1934 53.1419 38.7402 49.168 34.7656C46.1187 31.7162 41.6101 31.0064 37.8814 32.6359C36.7504 33.1304 35.6908 33.8403 34.7656 34.7656C31.1165 38.4147 26.423 40.3884 21.643 40.6869C21.3029 40.7084 20.9615 40.7209 20.6208 40.7257Z" fill="#7FC8FF"/>
</svg>
