<svg width="65" height="65" viewBox="0 0 65 65" fill="none" xmlns="http://www.w3.org/2000/svg">
<path d="M21.504 24.4884C21.7665 25.7022 22.0125 26.9324 22.2422 28.1791L23.9642 36.8409H17.9113L19.7321 28.1301C19.9946 26.8834 20.2245 25.6532 20.4213 24.4394C20.651 23.2255 20.8314 22.2737 20.9627 21.5848C21.0939 22.2737 21.2744 23.2417 21.504 24.4884Z" fill="white"/>
<path fill-rule="evenodd" clip-rule="evenodd" d="M65 65H0V0H65V65ZM16.2382 14.9406L7.42857 50.8674H14.9587L16.6807 42.7469H25.2437L26.9667 50.8674H34.4968L25.5883 14.9406H16.2382ZM46.0223 14.8571C43.8984 14.8571 42.0357 15.2649 40.4355 16.0795C38.8355 16.8651 37.5841 17.9702 36.6822 19.3957C35.8094 20.8214 35.3737 22.5091 35.3737 24.4584V37.988C35.3737 39.9082 35.8094 41.596 36.6822 43.0507C37.5841 44.4763 38.8353 45.5967 40.4355 46.4113C42.0357 47.1969 43.8984 47.5893 46.0223 47.5893C48.1752 47.5893 50.0372 47.1968 51.6083 46.4113C53.2084 45.5967 54.4452 44.4763 55.318 43.0507C56.2199 41.596 56.6709 39.9082 56.671 37.988V29.6961H45.4111V35.2386H50.1247V37.988C50.1247 39.2388 49.7609 40.2133 49.0338 40.9116C48.3356 41.5807 47.3315 41.9154 46.0223 41.9154C44.713 41.9154 43.6947 41.5807 42.9673 40.9116C42.2691 40.2133 41.9199 39.239 41.9199 37.988V24.4584C41.9199 23.1784 42.2691 22.204 42.9673 21.5349C43.6947 20.8657 44.713 20.531 46.0223 20.531C47.3315 20.5311 48.3356 20.8657 49.0338 21.5349C49.7609 22.204 50.1247 23.1785 50.1247 24.4584H56.671C56.6709 22.5091 56.2199 20.8214 55.318 19.3957C54.4452 17.9702 53.2084 16.865 51.6083 16.0795C50.0372 15.2649 48.1753 14.8572 46.0223 14.8571Z" fill="white"/>
</svg>
