<svg width="65" height="65" viewBox="0 0 65 65" fill="none" xmlns="http://www.w3.org/2000/svg">
<g clip-path="url(#clip0_5_501)">
<path d="M64.3167 12.5982C63.6288 12.2624 63.3309 12.9043 62.93 13.232C62.7919 13.3376 62.6754 13.4757 62.559 13.6003C61.5515 14.6755 60.3761 15.3797 58.8404 15.2957C56.5952 15.1712 54.6777 15.8753 52.9823 17.5924C52.6221 15.4745 51.425 14.2124 49.605 13.3999C48.6517 12.9774 47.6875 12.5576 47.0186 11.6395C46.5527 10.9868 46.4254 10.2582 46.1925 9.54323C46.0436 9.1099 45.8946 8.66844 45.399 8.59532C44.8573 8.51136 44.6461 8.96365 44.4348 9.34282C43.5871 10.892 43.2594 12.5982 43.2919 14.3261C43.365 18.2153 45.0063 21.3136 48.2698 23.5155C48.6409 23.7674 48.7356 24.022 48.6192 24.3903C48.3971 25.1487 48.1317 25.8853 47.8988 26.6464C47.7498 27.1311 47.5277 27.2341 47.0077 27.0255C45.2507 26.2704 43.6547 25.1856 42.3061 23.8297C39.985 21.5872 37.8888 19.1118 35.2725 17.1726C34.6663 16.7247 34.0439 16.2992 33.4065 15.897C30.7388 13.3051 33.7586 11.1764 34.4573 10.9245C35.1886 10.6591 34.7092 9.75448 32.3475 9.76532C29.9859 9.77615 27.8246 10.5643 25.0702 11.6178C24.6609 11.7747 24.2398 11.8987 23.8109 11.9889C21.2369 11.5039 18.6045 11.4108 16.0027 11.7126C10.8975 12.2814 6.82148 14.6972 3.82336 18.8166C0.221275 23.7674 -0.626433 29.3953 0.410859 35.2616C1.50232 41.4474 4.66023 46.5689 9.51086 50.5718C14.5429 54.7237 20.3361 56.7576 26.9471 56.3676C30.9609 56.1374 35.4323 55.5984 40.4725 51.3301C41.7454 51.9639 43.0779 52.2157 45.2934 52.4053C46.9996 52.5651 48.6409 52.3241 49.9111 52.0587C51.9017 51.6362 51.7636 49.7918 51.0459 49.4559C45.2094 46.7368 46.4904 47.8445 45.3232 46.948C48.2915 43.438 52.7602 39.7926 54.5098 27.9816C54.6452 27.0418 54.5288 26.4514 54.5098 25.693C54.499 25.2326 54.6046 25.0511 55.1327 24.9997C56.598 24.8477 58.0195 24.4107 59.3171 23.7132C63.0979 21.6468 64.6254 18.2559 64.9856 14.188C65.0398 13.5651 64.9748 12.9259 64.3167 12.5982Z" fill="white"/>
<path d="M64.3167 12.5982C63.6288 12.2624 63.3309 12.9043 62.93 13.232C62.7919 13.3376 62.6754 13.4757 62.559 13.6003C61.5515 14.6755 60.3761 15.3797 58.8404 15.2957C56.5952 15.1712 54.6777 15.8753 52.9823 17.5924C52.6221 15.4745 51.425 14.2124 49.605 13.3999C48.6517 12.9774 47.6875 12.5576 47.0186 11.6395C46.5527 10.9868 46.4254 10.2582 46.1925 9.54323C46.0436 9.1099 45.8946 8.66844 45.399 8.59532C44.8573 8.51136 44.6461 8.96365 44.4348 9.34282C43.5871 10.892 43.2594 12.5982 43.2919 14.3261C43.365 18.2153 45.0063 21.3136 48.2698 23.5155C48.6409 23.7674 48.7357 24.022 48.6192 24.3903C48.3971 25.1487 48.1317 25.8853 47.8988 26.6464C47.7498 27.1311 47.5277 27.2341 47.0077 27.0255C45.2507 26.2704 43.6547 25.1856 42.3061 23.8297C39.985 21.5872 37.8888 19.1118 35.2725 17.1726C34.6663 16.7247 34.0439 16.2992 33.4065 15.897C30.7388 13.3051 33.7586 11.1764 34.4573 10.9245C35.1886 10.6591 34.7092 9.75448 32.3475 9.76532C29.9859 9.77615 27.8246 10.5643 25.0702 11.6178C24.6609 11.7747 24.2398 11.8987 23.8109 11.9889C21.2369 11.5039 18.6045 11.4108 16.0027 11.7126C10.8975 12.2814 6.82148 14.6972 3.82336 18.8166C0.221275 23.7674 -0.626433 29.3953 0.410859 35.2616C1.50232 41.4474 4.66023 46.5689 9.51086 50.5718C14.5429 54.7237 20.3361 56.7576 26.9471 56.3676C30.9609 56.1374 35.4323 55.5984 40.4725 51.3301C41.7454 51.9639 43.0779 52.2157 45.2934 52.4053C46.9996 52.5651 48.6409 52.3241 49.9111 52.0587C51.9017 51.6362 51.7636 49.7918 51.0459 49.4559C45.2094 46.7368 46.4904 47.8445 45.3232 46.948C48.2915 43.438 52.7602 39.7926 54.5098 27.9816C54.6452 27.0418 54.5288 26.4514 54.5098 25.693C54.499 25.2326 54.6046 25.0511 55.1327 24.9997C56.598 24.8477 58.0195 24.4107 59.3171 23.7132C63.0979 21.6468 64.6255 18.2559 64.9857 14.188C65.0398 13.5651 64.9748 12.9259 64.3167 12.5982ZM31.3644 49.2095C25.7067 44.7624 22.9632 43.2972 21.8311 43.3595C20.7694 43.4245 20.9617 44.6351 21.1946 45.4259C21.4384 46.2059 21.7552 46.7422 22.1994 47.4274C22.5082 47.8797 22.7194 48.5541 21.8934 49.0605C20.0707 50.1872 16.9046 48.6814 16.7556 48.6082C13.0696 46.4361 9.98482 43.5707 7.81544 39.6518C5.71919 35.8791 4.50044 31.8328 4.30003 27.513C4.24586 26.4676 4.5519 26.0993 5.5919 25.9097C6.9572 25.6484 8.3561 25.6127 9.73294 25.8041C15.5071 26.6491 20.42 29.2301 24.5421 33.317C26.8929 35.6462 28.6723 38.4276 30.5059 41.1468C32.4559 44.0339 34.5521 46.7855 37.2225 49.0389C38.165 49.8297 38.9152 50.4309 39.6357 50.8724C37.4636 51.1162 33.8398 51.1703 31.3644 49.2095ZM34.0727 31.7678C34.0723 31.6333 34.1046 31.5007 34.1668 31.3814C34.2291 31.2621 34.3194 31.1598 34.4301 31.0833C34.5407 31.0068 34.6684 30.9583 34.8019 30.9422C34.9355 30.926 35.071 30.9426 35.1967 30.9905C35.3569 31.048 35.4952 31.154 35.5923 31.2939C35.6894 31.4337 35.7405 31.6003 35.7384 31.7705C35.7387 31.8805 35.7172 31.9895 35.675 32.091C35.6329 32.1926 35.5709 32.2848 35.4928 32.3622C35.4146 32.4396 35.3219 32.5006 35.2199 32.5418C35.1179 32.583 35.0087 32.6034 34.8988 32.602C34.7896 32.6024 34.6815 32.581 34.5807 32.539C34.48 32.4971 34.3886 32.4355 34.3119 32.3578C34.2352 32.2801 34.1748 32.188 34.1342 32.0866C34.0936 31.9853 34.0709 31.8769 34.0727 31.7678ZM42.4957 36.0903C41.954 36.3097 41.415 36.4993 40.8977 36.5237C40.1195 36.5508 39.3559 36.3077 38.7365 35.8357C37.9944 35.2128 37.4636 34.8661 37.2415 33.7828C37.1649 33.2534 37.1796 32.7148 37.2848 32.1903C37.4744 31.3047 37.2632 30.7359 36.6375 30.2214C36.1311 29.7989 35.4838 29.6824 34.7742 29.6824C34.5312 29.6683 34.2953 29.5958 34.0863 29.4712C33.9989 29.4315 33.9209 29.374 33.8571 29.3023C33.7934 29.2307 33.7454 29.1464 33.7163 29.055C33.6872 28.9636 33.6776 28.8671 33.6882 28.7718C33.6987 28.6765 33.7292 28.5844 33.7775 28.5016C33.8534 28.3553 34.2109 27.9978 34.2975 27.9328C35.2617 27.3857 36.3748 27.5645 37.4013 27.9762C38.3546 28.3661 39.075 29.0812 40.1123 30.0941C41.1713 31.3155 41.3636 31.6541 41.9675 32.5695C42.4442 33.2872 42.8775 34.0239 43.1727 34.8662C43.3542 35.3943 43.1213 35.8249 42.4957 36.0903Z" fill="#4D6BFE"/>
</g>
<defs>
<clipPath id="clip0_5_501">
<rect width="65" height="65" fill="white"/>
</clipPath>
</defs>
</svg>
