<svg role="img" viewBox="84 80 232 240" xmlns="http://www.w3.org/2000/svg"><title>E2B</title><path fill-rule="evenodd" clip-rule="evenodd" d="M276.212 241.998C274.672 241.998 273.71 243.665 274.48 244.998L290.585 272.894C291.476 274.437 290.056 276.287 288.335 275.826L239.491 262.737C237.357 262.165 235.163 263.432 234.592 265.566L221.504 314.411C221.042 316.132 218.731 316.436 217.84 314.893L201.732 286.992C200.962 285.659 199.037 285.659 198.268 286.992L182.16 314.893C181.269 316.436 178.957 316.132 178.496 314.411L165.407 265.566C164.836 263.432 162.642 262.165 160.508 262.737L111.664 275.826C109.943 276.287 108.523 274.437 109.414 272.894L125.519 244.998C126.289 243.665 125.327 241.998 123.787 241.998L91.5789 241.998C89.7971 241.998 88.9048 239.844 90.1648 238.584L125.922 202.827C127.484 201.265 127.484 198.733 125.922 197.171L90.1648 161.413C88.9048 160.153 89.7972 157.999 91.579 157.999L123.784 157.999C125.323 157.999 126.286 156.333 125.516 154.999L109.414 127.11C108.523 125.567 109.943 123.717 111.664 124.178L160.508 137.267C162.642 137.838 164.836 136.572 165.407 134.438L178.496 85.5929C178.957 83.8718 181.269 83.5675 182.16 85.1106L198.267 113.011C199.037 114.345 200.962 114.345 201.732 113.011L217.84 85.1106C218.73 83.5675 221.042 83.8718 221.503 85.5929L234.592 134.438C235.163 136.572 237.357 137.838 239.491 137.267L288.335 124.178C290.056 123.717 291.476 125.567 290.585 127.11L274.483 154.999C273.713 156.333 274.676 157.999 276.215 157.999L308.421 157.999C310.203 157.999 311.095 160.153 309.835 161.413L274.078 197.171C272.516 198.733 272.516 201.265 274.078 202.827L309.835 238.584C311.095 239.844 310.203 241.998 308.421 241.998L276.212 241.998ZM263.919 165.331C265.366 163.884 263.963 161.455 261.987 161.985L218.491 173.64C216.357 174.211 214.164 172.945 213.592 170.811L201.931 127.293C201.402 125.317 198.597 125.317 198.068 127.293L186.407 170.811C185.835 172.945 183.642 174.211 181.508 173.64L138.014 161.985C136.037 161.455 134.635 163.884 136.082 165.331L167.922 197.171C169.484 198.733 169.484 201.266 167.922 202.828L136.074 234.675C134.627 236.122 136.03 238.55 138.006 238.021L181.508 226.364C183.642 225.792 185.835 227.059 186.407 229.192L198.068 272.711C198.597 274.687 201.402 274.687 201.931 272.711L213.592 229.192C214.164 227.059 216.357 225.792 218.491 226.364L261.994 238.021C263.971 238.551 265.373 236.122 263.926 234.675L232.079 202.828C230.516 201.266 230.516 198.733 232.079 197.171L263.919 165.331Z" fill="white"/></svg>
