<svg width="65" height="65" viewBox="0 0 65 65" fill="none" xmlns="http://www.w3.org/2000/svg">
<path d="M54.1667 19.3452C54.1667 12.9348 48.97 7.73807 42.5595 7.73807H25.7679V3.09521H42.5595C51.5341 3.09521 58.8095 10.3706 58.8095 19.3452C58.8095 28.3198 51.5341 35.5952 42.5595 35.5952H41.5536V30.9524H42.5595C48.97 30.9524 54.1667 25.7557 54.1667 19.3452Z" fill="#34A853"/>
<path d="M6.19049 19.3452C6.19049 10.3706 13.4659 3.09521 22.4405 3.09521H25.7679C27.05 3.09521 28.0893 4.13455 28.0893 5.41664C28.0893 6.69873 27.05 7.73807 25.7679 7.73807H22.4405C16.03 7.73807 10.8333 12.9348 10.8333 19.3452C10.8333 25.7557 16.03 30.9524 22.4405 30.9524H41.5536C42.8357 30.9524 43.875 31.9917 43.875 33.2738C43.875 34.5559 42.8357 35.5952 41.5536 35.5952H22.4405C13.4659 35.5952 6.19049 28.3198 6.19049 19.3452Z" fill="#4285F4"/>
<path d="M54.1667 19.3452C54.1667 12.9348 48.97 7.73807 42.5595 7.73807H25.7679C24.4858 7.73807 23.4464 6.69873 23.4464 5.41664C23.4464 4.13455 24.4858 3.09521 25.7679 3.09521H42.5595C51.5342 3.09521 58.8095 10.3706 58.8095 19.3452C58.8095 20.6273 57.7702 21.6666 56.4881 21.6666C55.206 21.6666 54.1667 20.6273 54.1667 19.3452Z" fill="#34A853"/>
<path d="M25.8452 19.3452C25.8452 20.8837 24.598 22.1309 23.0595 22.1309C21.521 22.1309 20.2738 20.8837 20.2738 19.3452C20.2738 17.8067 21.521 16.5595 23.0595 16.5595C24.598 16.5595 25.8452 17.8067 25.8452 19.3452Z" fill="#4285F4"/>
<path d="M45.0357 19.3452C45.0357 20.8837 43.7885 22.1309 42.25 22.1309C40.7115 22.1309 39.4643 20.8837 39.4643 19.3452C39.4643 17.8067 40.7115 16.5595 42.25 16.5595C43.7885 16.5595 45.0357 17.8067 45.0357 19.3452Z" fill="#4285F4"/>
<path d="M15.0119 39.3095C16.294 39.3095 17.3333 40.3488 17.3333 41.6309C17.3333 42.913 16.294 43.9524 15.0119 43.9524H10.8333V57.2619H15.0119C16.294 57.2619 17.3333 58.3012 17.3333 59.5833C17.3333 60.8654 16.294 61.9047 15.0119 61.9047H10.3935C8.29634 61.9047 6.19049 60.3164 6.19049 57.8809V43.3333C6.19049 40.8979 8.29634 39.3095 10.3935 39.3095H15.0119Z" fill="#FBBC04"/>
<path d="M30.6951 41.4029C31.6758 40.577 33.1403 40.7026 33.9661 41.6832C34.792 42.6639 34.6665 44.1284 33.6858 44.9542L26.973 50.6071L33.6858 56.26C34.6665 57.0859 34.792 58.5504 33.9661 59.531C33.1403 60.5117 31.6758 60.6372 30.6951 59.8114L22.0143 52.5012C20.8394 51.5117 20.8394 49.7025 22.0143 48.7131L30.6951 41.4029Z" fill="#EA4335"/>
<path d="M49.162 59.8114C48.1813 60.6372 46.7168 60.5117 45.891 59.531C45.0651 58.5503 45.1907 57.0859 46.1713 56.26L52.8841 50.6071L46.1713 44.9542C45.1907 44.1284 45.0651 42.6639 45.891 41.6832C46.7168 40.7026 48.1813 40.577 49.162 41.4029L57.8429 48.7131C59.0177 49.7025 59.0177 51.5118 57.8429 52.5011L49.162 59.8114Z" fill="#EA4335"/>
</svg>
