<svg width="65" height="65" viewBox="0 0 65 65" fill="none" xmlns="http://www.w3.org/2000/svg">
<path d="M32.5 21.6667C34.6549 21.6667 36.7215 20.8106 38.2452 19.2869C39.769 17.7632 40.625 15.6965 40.625 13.5417C40.625 11.3868 39.769 9.32015 38.2452 7.79641C36.7215 6.27268 34.6549 5.41666 32.5 5.41666C30.3451 5.41666 28.2785 6.27268 26.7548 7.79641C25.231 9.32015 24.375 11.3868 24.375 13.5417C24.375 15.6965 25.231 17.7632 26.7548 19.2869C28.2785 20.8106 30.3451 21.6667 32.5 21.6667ZM32.5 31.2542C26.1083 25.3229 17.6042 21.6667 8.125 21.6667V51.4583C17.6042 51.4583 26.1083 55.1146 32.5 61.0458C38.8917 55.1146 47.3958 51.4583 56.875 51.4583V21.6667C47.3958 21.6667 38.8917 25.3229 32.5 31.2542Z" fill="white"/>
</svg>
