<svg width="65" height="65" viewBox="0 0 65 65" fill="none" xmlns="http://www.w3.org/2000/svg">
<rect width="65" height="65" rx="12" fill="#1C3C3C"/>
<path d="M33.1773 45.0839C32.1463 44.9567 31.0969 45.0692 30.1183 45.4152C29.1398 45.7619 28.2537 46.3356 27.5375 47.0818C26.822 47.8285 26.2907 48.7334 25.991 49.7193C25.6917 50.706 25.6289 51.7519 25.8107 52.7667C25.9926 53.7815 26.4129 54.7408 27.037 55.5656C27.6611 56.3905 28.4748 57.057 29.4075 57.5147C30.3391 57.9712 31.3666 58.2074 32.406 58.1993C33.8249 58.1881 35.2061 57.7258 36.3414 56.8825C37.4756 56.0391 38.3105 54.8572 38.7189 53.5114C39.1269 52.1657 39.0914 50.7225 38.6137 49.3992C38.1356 48.0762 37.2399 46.937 36.0629 46.1526C35.1999 45.5778 34.209 45.2118 33.1773 45.0839Z" fill="white"/>
<path d="M21.134 26.3552C20.4336 26.104 19.6932 25.9686 18.9481 25.9601C17.192 25.9603 15.5061 26.6525 14.2641 27.8789C13.0216 29.1063 12.3231 30.7745 12.3227 32.5105C12.3231 34.2461 13.0216 35.9104 14.2641 37.1378C15.5065 38.3653 17.1913 39.0564 18.9481 39.0568C19.6932 39.0484 20.4336 38.9127 21.134 38.6616L24.9639 44.2937L27.7143 42.4618L23.9183 36.8292C24.5979 36.058 25.0883 35.1383 25.3442 34.1471H35.5135V30.8739H25.3442C25.088 29.8814 24.5987 28.9595 23.9183 28.1874L27.7443 22.559L24.9639 20.7229L21.134 26.3552Z" fill="white"/>
<path d="M37.1802 22.6493L41.0104 28.2024C39.9679 29.3949 39.3854 30.9224 39.385 32.5105C39.385 34.2557 40.0846 35.9297 41.3302 37.1644C42.5761 38.3984 44.2674 39.0942 46.0292 39.0942C47.7906 39.0938 49.4827 38.3984 50.7283 37.1644C51.973 35.9297 52.6773 34.2553 52.6773 32.5105C52.6769 30.7649 51.9738 29.087 50.7283 27.8526C49.4827 26.6193 47.7903 25.927 46.0292 25.9262C45.2078 25.9264 44.3999 26.0804 43.6475 26.3664L39.8365 20.8433L37.1802 22.6493Z" fill="white"/>
<path d="M33.1773 6.85131C32.1463 6.72402 31.0969 6.83648 30.1183 7.18241C29.1398 7.5293 28.2537 8.10287 27.5375 8.84908C26.8216 9.59576 26.2907 10.5006 25.991 11.4865C25.6917 12.4735 25.6289 13.5192 25.8107 14.534C25.9926 15.549 26.4129 16.5082 27.037 17.3331C27.6611 18.1578 28.4752 18.8245 29.4075 19.282C30.3391 19.7387 31.3666 19.9746 32.406 19.9668C33.8249 19.9553 35.2061 19.4932 36.3414 18.6499C37.4756 17.8065 38.3105 16.6245 38.7189 15.2789C39.1269 13.933 39.0911 12.4899 38.6137 11.1667C38.1356 9.84344 37.2399 8.70419 36.0629 7.91979C35.1999 7.34526 34.209 6.9791 33.1773 6.85131Z" fill="white"/>
</svg>
