<svg width="65" height="65" viewBox="0 0 65 65" fill="none" xmlns="http://www.w3.org/2000/svg">
<path d="M34.3525 35.4438C31.6885 38.1098 31.6885 42.4303 34.3525 45.0963C37.0185 47.7603 41.339 47.7603 44.0029 45.0963C46.669 42.4303 46.669 38.1098 44.0029 35.4438C41.339 32.7798 37.0185 32.7798 34.3525 35.4438ZM41.567 42.6644C41.2534 42.9784 40.8809 43.2276 40.471 43.3976C40.061 43.5676 39.6215 43.6551 39.1777 43.6551C38.7339 43.6551 38.2944 43.5676 37.8845 43.3976C37.4745 43.2276 37.102 42.9784 36.7885 42.6644C36.4747 42.3508 36.2258 41.9784 36.056 41.5686C35.8861 41.1588 35.7987 40.7195 35.7987 40.2759C35.7987 39.8323 35.8861 39.393 36.056 38.9832C36.2258 38.5733 36.4747 38.201 36.7885 37.8874C37.102 37.5733 37.4745 37.3242 37.8845 37.1542C38.2944 36.9842 38.7339 36.8967 39.1777 36.8967C39.6215 36.8967 40.061 36.9842 40.471 37.1542C40.8809 37.3242 41.2534 37.5733 41.567 37.8874C42.8863 39.2006 42.8863 41.3451 41.567 42.6644ZM43.8902 1.8647L39.7084 6.04603C39.3147 6.44268 39.0938 6.97888 39.0938 7.53773C39.0938 8.09658 39.3147 8.63277 39.7084 9.02943L56.034 25.3551C56.4307 25.7488 56.9669 25.9697 57.5257 25.9697C58.0846 25.9697 58.6208 25.7488 59.0174 25.3551L63.1988 21.1733C64.0163 20.3557 64.0163 19.0095 63.1988 18.1924L46.866 1.86419C46.4704 1.47148 45.9355 1.2511 45.3781 1.2511C44.8207 1.2511 44.2858 1.47199 43.8902 1.8647ZM14.5935 55.2983C14.95 54.9401 15.1502 54.4554 15.1502 53.95C15.1502 53.4447 14.95 52.9599 14.5935 52.6018L12.4693 50.4756C12.1108 50.1192 11.6258 49.9191 11.1203 49.9191C10.6148 49.9191 10.1298 50.1192 9.7713 50.4756L5.38177 54.8676L5.37365 54.8737L4.16962 53.6677C3.50287 53.0009 2.41767 53.0009 1.75751 53.6677C1.09076 54.3339 1.09076 55.4191 1.75751 56.0798L8.99181 63.312C9.14996 63.4705 9.3378 63.5962 9.54457 63.6819C9.75134 63.7677 9.973 63.8118 10.1969 63.8118C10.4207 63.8118 10.6424 63.7677 10.8491 63.6819C11.0559 63.5962 11.2437 63.4705 11.4019 63.312C12.062 62.6453 12.0686 61.5601 11.4019 60.902L10.1958 59.6959L10.204 59.6898L14.5935 55.2983Z" fill="#F5A800"/>
<path d="M36.7133 13.8699L27.4239 23.1588C26.5987 23.984 26.5987 25.3429 27.4239 26.1681L33.1601 31.9028C37.2145 28.9849 42.9 29.346 46.5476 32.9961L51.1931 28.3501C52.0167 27.5249 52.0167 26.1681 51.1931 25.3429L39.7211 13.8699C39.5237 13.6723 39.2893 13.5155 39.0313 13.4085C38.7733 13.3016 38.4967 13.2465 38.2174 13.2465C37.9381 13.2465 37.6616 13.3016 37.4036 13.4085C37.1456 13.5155 36.9107 13.6723 36.7133 13.8699ZM30.748 34.3205L27.3599 30.9324C26.5662 30.1392 25.2652 30.1392 24.4735 30.9324L12.5247 42.8863C12.1435 43.2702 11.9296 43.7892 11.9296 44.3302C11.9296 44.8712 12.1435 45.3903 12.5247 45.7742L19.2943 52.5444C19.6783 52.9257 20.1974 53.1397 20.7385 53.1397C21.2796 53.1397 21.7988 52.9257 22.1828 52.5444L29.867 44.8474C28.2425 41.4913 28.534 37.4369 30.748 34.3205Z" fill="#425CC7"/>
</svg>
