<svg width="65" height="65" viewBox="0 0 65 65" fill="none" xmlns="http://www.w3.org/2000/svg">
<path d="M64.3182 46.7921L34.5145 5.4904C33.5765 4.20116 31.4132 4.20116 30.485 5.4904L0.680863 46.7921C0.377436 47.2147 0.214212 47.7219 0.214172 48.2422C0.214796 48.7646 0.379542 49.2737 0.685139 49.6974C0.990736 50.1211 1.42174 50.4382 1.91727 50.6037L31.7214 60.3541H31.7261C32.2264 60.5173 32.7656 60.5173 33.266 60.3541H33.2706L63.0748 50.6041C63.4467 50.4837 63.7846 50.2764 64.0605 49.9995C64.3364 49.7225 64.5424 49.3838 64.6614 49.0114C64.7841 48.6403 64.8164 48.2453 64.7555 47.8593C64.6945 47.4732 64.5422 47.1073 64.3112 46.7921H64.3182ZM32.5009 11.1819L44.4464 27.7372L33.2753 24.0837C33.1893 24.0556 33.0976 24.0603 33.0116 24.0397C32.9273 24.0189 32.8414 24.0048 32.7549 23.9976C32.6688 23.9859 32.587 23.9532 32.5009 23.9532C32.4144 23.9532 32.3349 23.9859 32.2484 23.9976C32.1624 24.007 32.0763 24.021 31.9922 24.0397C31.9033 24.0561 31.8126 24.0561 31.7331 24.0837L20.6293 27.7162L20.5592 27.7396L32.5061 11.1809H32.5014L32.5009 11.1819ZM15.6224 34.5753L28.6276 30.3181L30.016 29.8659V54.5743L6.69827 46.9436L15.6224 34.5753ZM34.9878 54.5696V29.8659L49.3813 34.5753L58.3059 46.9366L34.9854 54.5696H34.9878Z" fill="#E61FEA"/>
</svg>
