<svg role="img" viewBox="0 0 27 21" xmlns="http://www.w3.org/2000/svg"><title>Runloop</title><path d="M21.6932 17.9206C20.5745 19.1789 19.18 20.1844 17.6085 20.8372H24.6956L26.8291 17.9206H21.6932Z" fill="white"/><path d="M13.4145 0C7.72714 0 3.11687 4.66442 3.11687 10.4186C3.11687 12.9561 4.01707 15.2778 5.51047 17.0888H10.0271C7.63869 15.8411 6.0048 13.3247 6.0048 10.4186C6.0048 6.28064 9.32981 2.91658 13.4197 2.91658C17.5097 2.91658 20.8347 6.28064 20.8347 10.4186C20.8347 14.5566 17.5097 17.9206 13.4197 17.9206H2.13342L0 20.8372H13.4145C19.1019 20.8372 23.7122 16.1728 23.7122 10.4186C23.7122 4.66442 19.1019 0 13.4145 0Z" fill="white"/></svg>
