<svg width="65" height="65" viewBox="0 0 65 65" fill="none" xmlns="http://www.w3.org/2000/svg">
<path d="M35.3438 42.0144H43.6854C44.265 42.0144 44.739 42.4937 44.739 43.0814V48.0106C45.7437 48.2584 46.636 48.8366 47.2725 49.6524C47.9091 50.4683 48.253 51.4744 48.249 52.5092C48.249 55.0631 46.2042 57.135 43.6854 57.135C41.164 57.135 39.1192 55.0631 39.1192 52.5092C39.1192 50.3235 40.6196 48.49 42.6319 48.0079V44.1485H35.3465V56.7775C35.3472 56.9609 35.3008 57.1415 35.2116 57.3018C35.1224 57.4621 34.9935 57.5968 34.8373 57.6929L27.5519 62.1373C27.3866 62.2384 27.1964 62.2914 27.0027 62.2905C26.8089 62.2895 26.6193 62.2346 26.455 62.1319L13.1138 53.7739C12.9598 53.6773 12.833 53.5431 12.7454 53.3838C12.6577 53.2246 12.6121 53.0457 12.6127 52.8639V44.1458L5.94752 40.2729C5.79595 40.185 5.66827 40.0613 5.57571 39.9125C5.48315 39.7638 5.42855 39.5946 5.41669 39.4198V39.3467V25.4746C5.41669 25.0954 5.6144 24.7433 5.93669 24.5537L12.6127 20.5942V12.0467C12.6127 11.6973 12.7806 11.3723 13.0596 11.1746L13.1165 11.1367L26.4604 2.8654C26.6258 2.76242 26.8168 2.70784 27.0116 2.70784C27.2064 2.70784 27.3973 2.76242 27.5627 2.8654L34.8481 7.40186C35.0021 7.49849 35.1289 7.63275 35.2165 7.79197C35.3042 7.95118 35.3499 8.13011 35.3492 8.31186V20.5833H45.7925V15.3914C44.7874 15.1436 43.8948 14.5649 43.2582 13.7486C42.6215 12.9322 42.2779 11.9254 42.2825 10.8902C42.2825 8.33624 44.3273 6.26436 46.8461 6.26436C49.3675 6.26436 51.4096 8.33624 51.4096 10.8902C51.4096 13.0758 49.9119 14.9094 47.8996 15.3914V21.6504C47.9007 21.7897 47.8743 21.9278 47.8219 22.0569C47.7695 22.186 47.6921 22.3034 47.5942 22.4025C47.4964 22.5017 47.3799 22.5805 47.2515 22.6346C47.1231 22.6886 46.9854 22.7168 46.8461 22.7175H35.3492V27.6087H53.2892C53.5196 26.6017 54.0839 25.7023 54.8903 25.0567C55.6968 24.4111 56.6978 24.0572 57.7309 24.0527C60.2496 24.0527 62.2944 26.1219 62.2944 28.6758C62.2944 31.2298 60.2523 33.3017 57.7309 33.3017C56.6975 33.297 55.6961 32.9427 54.8896 32.2966C54.0832 31.6504 53.5191 30.7504 53.2892 29.7429H35.3438V34.9889H48.7581L51.2363 38.1848C51.9264 37.7812 52.7118 37.569 53.5113 37.57C56.0327 37.57 58.0748 39.6392 58.0748 42.1931C58.0748 44.7471 56.0327 46.8189 53.5113 46.8189C50.9925 46.8189 48.9477 44.7471 48.9477 42.1931C48.9477 41.256 49.224 40.3839 49.6952 39.6554L47.7344 37.1231H35.3438V42.0144ZM27.0102 5.02665L21.4771 8.4554V16.4937H19.37V9.76082L14.7198 12.6452V20.6212L20.4344 24.3046L26.3034 20.6104V14.4462H28.4104V21.2062C28.4104 21.5746 28.2209 21.9185 27.9121 22.1135L21.5665 26.1029V31.7389L25.4177 34.4717L24.2098 36.2212L20.4019 33.5183L16.2581 36.2402L15.1125 34.4527L19.4594 31.5954V26.2058L13.6446 22.4521L7.52377 26.0812V30.6204L12.8646 27.4002L13.9425 29.2337L7.52377 33.1039V38.7292L13.39 42.1362L19.5379 38.4312L20.6131 40.2648L14.7198 43.8154V52.2708L19.8006 55.4531L26.2059 51.591L27.2838 53.4273L21.8211 56.7206L27.0156 59.9733L33.2394 56.1735V40.5194L20.3531 48.3546L19.2698 46.5264L33.2394 38.0331V8.9077L27.0102 5.02665ZM43.6854 50.0229C43.3603 50.0247 43.0386 50.0906 42.7389 50.2168C42.4393 50.3431 42.1674 50.5272 41.939 50.7586C41.7106 50.9901 41.53 51.2643 41.4077 51.5656C41.2854 51.8669 41.2238 52.1894 41.2263 52.5146C41.2263 53.8877 42.3259 55.0008 43.6854 55.0008C44.0102 54.9987 44.3313 54.9326 44.6305 54.8064C44.9297 54.6802 45.2011 54.4962 45.4292 54.2651C45.6573 54.034 45.8376 53.7602 45.9599 53.4594C46.0822 53.1585 46.144 52.8366 46.1419 52.5119C46.1444 52.1869 46.0828 51.8647 45.9607 51.5635C45.8386 51.2624 45.6583 50.9883 45.4301 50.7569C45.202 50.5255 44.9305 50.3413 44.6311 50.2149C44.3317 50.0885 44.0104 50.025 43.6854 50.0229ZM53.5167 39.7042C53.1915 39.7059 52.8699 39.7718 52.5702 39.8981C52.2705 40.0243 51.9987 40.2084 51.7702 40.4399C51.5418 40.6713 51.3613 40.9455 51.239 41.2469C51.1167 41.5482 51.055 41.8706 51.0575 42.1958C51.0575 43.5717 52.1571 44.6875 53.514 44.6875C53.8392 44.6857 54.1608 44.6198 54.4605 44.4936C54.7602 44.3673 55.032 44.1832 55.2604 43.9518C55.4888 43.7203 55.6694 43.4461 55.7917 43.1448C55.914 42.8435 55.9756 42.521 55.9731 42.1958C55.9756 41.8706 55.914 41.5482 55.7917 41.2469C55.6694 40.9455 55.4888 40.6713 55.2604 40.4399C55.032 40.2084 54.7602 40.0243 54.4605 39.8981C54.1608 39.7718 53.8419 39.7059 53.5167 39.7042ZM57.7281 26.1896C57.403 26.1913 57.0813 26.2572 56.7816 26.3835C56.482 26.5097 56.2101 26.6938 55.9817 26.9253C55.7533 27.1567 55.5727 27.431 55.4504 27.7323C55.3281 28.0336 55.2665 28.3561 55.269 28.6812C55.269 30.0544 56.3713 31.1675 57.7281 31.1675C58.0529 31.1654 58.374 31.0993 58.6732 30.9731C58.9724 30.8468 59.2438 30.6629 59.4719 30.4318C59.7 30.2007 59.8803 29.9269 60.0026 29.626C60.1249 29.3252 60.1867 29.0033 60.1846 28.6785C60.1871 28.3536 60.1255 28.0313 60.0034 27.7302C59.8813 27.4291 59.701 27.1549 59.4728 26.9235C59.2447 26.6921 58.9732 26.5079 58.6738 26.3815C58.3744 26.2551 58.0531 26.189 57.7281 26.1869V26.1896ZM46.8434 8.39582C46.5184 8.39795 46.1971 8.4641 45.8977 8.59051C45.5983 8.71691 45.3268 8.90108 45.0987 9.13249C44.8705 9.3639 44.6902 9.63801 44.5681 9.93915C44.446 10.2403 44.3844 10.5625 44.3869 10.8875C44.3869 12.2633 45.4865 13.3792 46.8434 13.3792C47.1685 13.3774 47.4902 13.3115 47.7899 13.1852C48.0895 13.059 48.3614 12.8749 48.5898 12.6434C48.8182 12.412 48.9988 12.1378 49.1211 11.8365C49.2434 11.5351 49.305 11.2127 49.3025 10.8875C49.305 10.5623 49.2434 10.2398 49.1211 9.93853C48.9988 9.63721 48.8182 9.36299 48.5898 9.13154C48.3614 8.90009 48.0895 8.71598 47.7899 8.58973C47.4902 8.46349 47.1685 8.39759 46.8434 8.39582Z" fill="url(#paint0_linear_5_400)"/>
<defs>
<linearGradient id="paint0_linear_5_400" x1="4555.63" y1="1194.36" x2="984.531" y2="4603.34" gradientUnits="userSpaceOnUse">
<stop stop-color="#6350FB"/>
<stop offset="0.5" stop-color="#3D8FFF"/>
<stop offset="1" stop-color="#9AD8F8"/>
</linearGradient>
</defs>
</svg>
