<svg width="65" height="65" viewBox="0 0 65 65" fill="none" xmlns="http://www.w3.org/2000/svg">
<g clip-path="url(#clip0_5_391)">
<mask id="mask0_5_391" style="mask-type:luminance" maskUnits="userSpaceOnUse" x="4" y="0" width="58" height="65">
<path d="M61.5994 0H4.0625V65H61.5994V0Z" fill="white"/>
</mask>
<g mask="url(#mask0_5_391)">
<path d="M55.8758 36.5695C55.7268 35.8952 55.3196 35.3061 54.7413 34.9286C54.1724 34.5712 53.3745 34.4082 52.6424 35.442C50.9737 37.7942 50.783 38.0057 50.783 38.0057C50.783 38.0057 48.7395 40.802 47.2235 42.0578C45.7731 43.3113 44.2535 44.4823 42.6719 45.5653C38.5253 48.1789 33.6678 49.4363 28.774 49.1629C27.4986 49.1071 26.2811 48.6147 25.3255 47.7683C24.3692 46.9222 23.7323 45.7735 23.5215 44.5141C23.1408 42.5327 23.0765 40.5034 23.3307 38.5019C23.5864 35.8953 24.3401 33.362 25.551 31.0395C27.4779 26.9984 29.8643 23.193 32.663 19.6985C34.0542 18.0368 35.5078 16.4305 37.0481 14.9074C37.9181 13.9605 39.0534 13.298 40.3058 13.0063C40.4783 13.0973 40.6306 13.2224 40.7533 13.3741C40.8748 13.527 40.9645 13.7028 41.017 13.891C41.0678 14.0796 41.0807 14.2766 41.0551 14.4704C41.0278 14.6631 40.9617 14.8484 40.8609 15.015C39.7681 17.506 38.6371 19.9864 37.6518 22.526C36.7005 24.5793 36.3343 26.8555 36.5937 29.1037C36.9477 30.6728 37.7073 32.1214 38.7966 33.3049C39.8844 34.4896 41.2635 35.3688 42.7967 35.8548C43.3132 36.0323 43.8789 36 44.3718 35.7646C44.8642 35.5264 45.243 35.1039 45.4264 34.5885C46.5261 32.2121 47.5946 29.8322 48.6701 27.4488C49.8427 25.1484 50.745 22.7199 51.3588 20.212C51.9591 17.9142 51.6536 15.4737 50.5054 13.3949C49.2522 11.3573 47.58 9.60944 45.5999 8.26727C42.7551 6.29677 39.6952 5.07211 36.1461 5.73474C33.4043 6.25587 30.7905 7.30705 28.4513 8.82935C25.2864 10.8726 22.4577 13.3947 20.0662 16.3056C17.7595 19.1176 15.7472 22.1587 14.0609 25.3811C11.9343 29.2241 10.5159 33.418 9.87344 37.7629C9.46117 40.5374 9.53986 43.3627 10.1059 46.1099C10.8138 49.828 12.8039 53.1798 15.7295 55.581C18.7026 57.9482 22.3568 59.2992 26.1547 59.4353C28.202 59.4928 30.2505 59.3884 32.2814 59.1231C35.2693 58.742 38.1693 57.8489 40.854 56.483C42.5712 55.6712 44.2018 54.6548 45.8497 53.7354C45.8497 53.7354 53.0692 48.6668 55.0258 43.1819C56.2539 39.7438 56.136 37.6519 55.8758 36.5695Z" fill="white"/>
<path d="M61.2757 35.2823C60.7976 33.1903 59.5102 31.3729 57.6954 30.2276C56.6017 29.5297 55.3392 29.1413 54.0423 29.1036C55.199 26.6914 56.1034 24.1663 56.7413 21.5684C57.6939 17.9062 57.2007 14.018 55.3641 10.7096L55.3017 10.5951L55.2322 10.4841C53.5765 7.78172 51.3622 5.46452 48.7378 3.68782C45.1505 1.20729 41.6639 0 38.0768 0C37.0814 0.0014377 36.0884 0.0955126 35.1106 0.281009C31.6639 0.930971 28.3779 2.24984 25.4382 4.1631C21.7909 6.52088 18.5305 9.42898 15.7729 12.7842C13.241 15.8736 11.029 19.212 9.1709 22.7479C6.73807 27.1552 5.11651 31.9636 4.38335 36.9441C3.87675 40.3479 3.97066 43.8141 4.66086 47.1854C5.62208 52.163 8.29082 56.649 12.2065 59.869L12.2724 59.9245C16.182 63.0205 20.9753 64.792 25.9586 64.9827H25.9933C26.4131 64.9931 26.8294 65 27.2492 65C29.1667 64.9992 31.0823 64.8751 32.9838 64.6288C36.5774 64.1714 40.0661 63.1013 43.298 61.4648C44.6822 60.8056 45.9415 60.0806 47.1593 59.3764C47.6241 59.1092 48.089 58.8421 48.5539 58.5819L48.8037 58.4431L49.0396 58.2766C49.9277 57.6556 57.7752 51.9937 60.2522 45.0483C61.5914 41.305 61.9314 38.0161 61.2757 35.2823ZM55.0275 43.1819C53.0709 48.6667 45.8514 53.7353 45.8514 53.7353C44.2035 54.6547 42.573 55.6712 40.8557 56.483C38.171 57.8489 35.271 58.742 32.2831 59.1231C30.2522 59.3883 28.2037 59.4927 26.1564 59.4353C22.3585 59.2991 18.7044 57.9482 15.7313 55.5809C12.8056 53.1798 10.8155 49.8279 10.1076 46.1099C9.54158 43.3626 9.46289 40.5373 9.87517 37.7629C10.5177 33.418 11.936 29.224 14.0626 25.3811C15.7489 22.1586 17.7612 19.1176 20.0679 16.3055C22.4594 13.3947 25.2881 10.8726 28.453 8.82928C30.7923 7.30698 33.406 6.25581 36.1479 5.73467C39.6969 5.07205 42.7568 6.2967 45.6016 8.26727C47.5818 9.60936 49.2539 11.3572 50.5071 13.3948C51.6553 15.4737 51.9608 17.9142 51.3605 20.2119C50.7467 22.7199 49.8444 25.1483 48.6718 27.4488C47.5964 29.8322 46.5279 32.2121 45.4281 34.5885C45.2447 35.1039 44.8659 35.5263 44.3735 35.7645C43.8806 35.9999 43.3149 36.0323 42.7984 35.8547C41.2653 35.3687 39.8861 34.4896 38.7983 33.3049C37.709 32.1213 36.9494 30.6727 36.5954 29.1036C36.336 26.8554 36.7022 24.5793 37.6535 22.5259C38.6388 19.9864 39.7698 17.5059 40.8626 15.0149C40.9634 14.8484 41.0295 14.6631 41.0568 14.4703C41.0825 14.2765 41.0695 14.0796 41.0187 13.8909C40.9663 13.7027 40.8765 13.5269 40.755 13.374L40.7516 13.3705C40.7307 13.3462 40.7134 13.3254 40.6925 13.3046C40.5937 13.209 40.4718 13.1405 40.3387 13.1058C40.2056 13.0712 40.0658 13.0715 39.9328 13.1068C39.9221 13.1075 39.9115 13.1098 39.9016 13.1138C39.8842 13.1207 39.8634 13.1242 39.8461 13.1311C39.7663 13.1554 39.69 13.1797 39.6171 13.2074C39.4679 13.263 39.3187 13.3219 39.1731 13.3844C39.1211 13.4052 39.0759 13.4295 39.0274 13.4538C38.9857 13.4746 38.9476 13.4954 38.9059 13.5163C38.5954 13.6903 38.3005 13.8912 38.0248 14.1164C37.4802 14.5384 36.9634 14.995 36.4774 15.4833C36.4392 15.5214 36.4011 15.5561 36.3664 15.5943C36.1444 15.8198 35.9258 16.0488 35.7107 16.2812C35.5858 16.4061 35.4679 16.531 35.3534 16.6559C35.0308 16.9994 34.715 17.3428 34.3994 17.6932C34.1704 17.9465 33.9449 18.2032 33.7194 18.4634L33.709 18.4738C33.5945 18.6056 33.4765 18.741 33.3621 18.8762C33.1261 19.1468 32.8937 19.4209 32.6648 19.6984C29.8661 23.1929 27.4796 26.9983 25.5527 31.0394C24.3419 33.3619 23.5882 35.8952 23.3324 38.5018C23.0782 40.5034 23.1426 42.5326 23.5232 44.514C23.734 45.7734 24.3709 46.9222 25.3273 47.7682C26.2828 48.6147 27.5003 49.1071 28.7757 49.1628C33.6695 49.4362 38.527 48.1788 42.6736 45.5652C44.2552 44.4822 45.7748 43.3112 47.2252 42.0578C48.7412 40.802 50.7847 38.0057 50.7847 38.0057C50.7847 38.0057 50.9754 37.7941 52.6441 35.4419C53.3762 34.4081 54.1741 34.5711 54.7431 34.9285C55.3213 35.306 55.7285 35.8951 55.8775 36.5694C56.1377 37.6518 56.2556 39.7438 55.0275 43.1819Z" fill="#262626"/>
</g>
</g>
<defs>
<clipPath id="clip0_5_391">
<rect width="65" height="65" fill="white"/>
</clipPath>
</defs>
</svg>
