<svg width="65" height="65" viewBox="0 0 65 65" fill="none" xmlns="http://www.w3.org/2000/svg">
<path fill-rule="evenodd" clip-rule="evenodd" d="M39.9335 16.7626L32.4965 34.5842L25.0525 16.7626H20.2771L28.4361 36.2447C29.1129 37.8703 30.7 38.9201 32.4686 38.9201C34.2371 38.9201 35.8208 37.8703 36.501 36.2516L44.709 16.7626H39.9335ZM43.1114 43.9154L56.7156 30.1611L54.8598 25.7833L39.9998 40.8352C38.758 42.0946 38.4021 43.9503 39.0894 45.5759C39.7731 47.1875 41.3532 48.2304 43.1149 48.2304L43.1218 48.2374L64.3619 48.1851L62.5061 43.8073L43.1149 43.9154H43.1114ZM8.28436 30.1507L10.1401 25.7729L25.0002 40.8248C26.242 42.0806 26.6014 43.9433 25.9106 45.5653C25.2269 47.1804 23.6398 48.2199 21.8852 48.2199L0.645038 48.1711L0.638062 48.178L2.49382 43.8003L21.8852 43.9085L8.28436 30.1507Z" fill="#6720FF"/>
</svg>
