<svg width="65" height="65" viewBox="0 0 65 65" fill="none" xmlns="http://www.w3.org/2000/svg">
<rect width="65" height="65" rx="12" fill="#1C3C3C"/>
<path fill-rule="evenodd" clip-rule="evenodd" d="M43.0433 8.41148C46.7604 8.41148 50.2601 9.84991 52.881 12.4662C55.5012 15.0823 56.95 18.5651 56.9456 22.2692C56.9456 25.9781 55.5007 29.4605 52.876 32.0723L46.8582 38.0703C45.2554 39.6676 43.271 40.8616 41.1247 41.5143L41.0184 41.549L40.9764 41.6553C40.2747 43.4977 39.2153 45.1369 37.8167 46.5308L31.7939 52.5313C29.1688 55.1478 25.6738 56.5885 21.9563 56.5885C18.2396 56.5882 14.746 55.1478 12.1211 52.5363C6.69881 47.1324 6.69886 38.3345 12.1211 32.9302L18.1439 26.9297C19.7562 25.3229 21.6839 24.1695 23.8674 23.498L23.9738 23.4659L24.0158 23.3596C24.7128 21.5166 25.7822 19.8722 27.1903 18.4692L33.2057 12.4662C35.8308 9.84987 39.3262 8.4115 43.0433 8.41148ZM43.0433 14.3798C40.9244 14.3798 38.9393 15.2001 37.4433 16.6866L31.4255 22.6871C29.7995 24.3078 28.9691 26.5545 29.1411 28.8557C29.1551 28.9802 29.1641 29.1094 29.1781 29.234C29.3964 31.003 30.171 32.5972 31.4255 33.8475C32.2942 34.7138 33.364 35.3715 34.521 35.7512C34.5811 36.0976 34.6149 36.4533 34.6149 36.8044C34.6149 38.3925 33.996 39.8845 32.8719 41.005L32.4986 41.3759C30.487 40.6906 28.7021 39.5797 27.1829 38.0703C25.1712 36.0654 23.8427 33.5355 23.3408 30.757L23.2716 30.3688L22.965 30.6185C22.7609 30.785 22.5605 30.967 22.3791 31.1476L16.3588 37.1481C13.2736 40.2231 13.2736 45.2288 16.3588 48.3085C17.9012 49.8451 19.931 50.6151 21.9563 50.6152C23.9824 50.6152 26.0137 49.8456 27.5563 48.3085L33.5765 42.308C36.6621 39.233 36.6621 34.2275 33.5765 31.1525C32.7541 30.3329 31.7744 29.7161 30.6641 29.318C30.6037 28.9568 30.5726 28.5944 30.5726 28.2425C30.5729 26.5158 31.2589 24.8766 32.5085 23.6266C34.5247 24.3119 36.3091 25.4247 37.8192 26.9297C39.8267 28.93 41.1571 31.4576 41.6637 34.2406L41.733 34.6287L42.0395 34.379C42.2435 34.2125 42.4427 34.0323 42.628 33.8475L48.6507 27.8494C51.7358 24.7748 51.7358 19.7684 48.6507 16.6891C47.1594 15.2033 45.171 14.3851 43.0532 14.3848L43.0433 14.3798Z" fill="white"/>
</svg>
