<svg width="65" height="65" viewBox="0 0 65 65" fill="none" xmlns="http://www.w3.org/2000/svg">
<path d="M10.7542 34.9034C12.909 34.9034 14.9757 35.7594 16.4994 37.2831C18.0231 38.8068 18.8792 40.8735 18.8792 43.0284C18.8792 45.1832 18.0231 47.2499 16.4994 48.7736C14.9757 50.2973 12.909 51.1534 10.7542 51.1534C8.59927 51.1534 6.53264 50.2973 5.00891 48.7736C3.48517 47.2499 2.62915 45.1832 2.62915 43.0284C2.62915 40.8735 3.48517 38.8068 5.00891 37.2831C6.53264 35.7594 8.59927 34.9034 10.7542 34.9034ZM21.4069 13.7784C22.6292 13.775 23.8366 14.0474 24.939 14.5753C26.0414 15.1033 27.0105 15.8732 27.7741 16.8277C28.5377 17.7821 29.0761 18.8966 29.3492 20.088C29.6222 21.2795 29.623 22.5171 29.3514 23.7089C28.8097 26.2367 28.268 29.1256 29.7125 31.2922L32.0597 34.5422L32.6014 34.9034C32.8421 34.9034 33.0227 34.783 33.143 34.5422L35.4903 31.1117C36.9347 29.1256 36.393 26.2367 35.8514 23.8895C35.5974 22.7048 35.6115 21.4783 35.8928 20.2999C36.1741 19.1214 36.7153 18.0207 37.477 17.0785C38.2386 16.1362 39.2013 15.3762 40.2947 14.8541C41.388 14.3321 42.5842 14.0611 43.7958 14.0611C45.0074 14.0611 46.2036 14.3321 47.297 14.8541C48.3903 15.3762 49.353 16.1362 50.1147 17.0785C50.8763 18.0207 51.4176 19.1214 51.6988 20.2999C51.9801 21.4783 51.9943 22.7048 51.7403 23.8895C51.1986 26.2367 50.6569 28.945 51.7403 31.1117L54.0875 34.7228C55.7784 34.6898 57.4375 35.1854 58.8334 36.1403C60.2293 37.0953 61.2924 38.462 61.8745 40.05C62.4565 41.638 62.5285 43.368 62.0805 44.9988C61.6324 46.6297 60.6866 48.08 59.3749 49.1477C58.0632 50.2154 56.451 50.8471 54.7632 50.9548C53.0753 51.0625 51.3959 50.6408 49.9592 49.7485C48.5224 48.8562 47.3999 47.5378 46.7482 45.9771C46.0965 44.4164 45.9481 42.6913 46.3236 41.0422C46.8653 38.695 47.4069 35.9867 46.3236 33.82L44.1569 30.2089H43.7958L41.4486 33.6395C40.0042 35.8061 40.5458 38.695 41.0875 41.2228C41.3667 42.4009 41.3791 43.6265 41.1238 44.8101C40.8685 45.9936 40.3519 47.1051 39.6118 48.0633C38.8717 49.0215 37.9268 49.8022 36.8462 50.3483C35.7656 50.8944 34.5766 51.1921 33.3661 51.2196C32.1557 51.2471 30.9544 51.0037 29.8501 50.5073C28.7458 50.0109 27.7664 49.2739 26.9835 48.3503C26.2007 47.4267 25.6341 46.3398 25.3253 45.1691C25.0165 43.9984 24.9732 42.7735 25.1986 41.5839C25.8004 39.1765 25.5597 36.8895 24.4764 34.7228L22.8514 32.3756C21.768 31.0515 20.3236 30.0885 18.518 29.4867C16.7492 28.8063 15.2739 27.5291 14.3473 25.8759C13.4207 24.2227 13.1011 22.2976 13.4439 20.4337C13.7867 18.5698 14.7702 16.8844 16.2244 15.669C17.6785 14.4537 19.5118 13.7849 21.4069 13.7784Z" fill="black"/>
</svg>
