<svg width="65" height="65" viewBox="0 0 65 65" fill="none" xmlns="http://www.w3.org/2000/svg">
<path d="M18.5896 9.5379H9.31958V18.7216H18.5896V9.5379Z" fill="#FFD800"/>
<path d="M55.6741 9.5379H46.4041V18.7216H55.6741V9.5379Z" fill="#FFD800"/>
<path d="M27.8594 18.7216H9.31958V27.9053H27.8594V18.7216Z" fill="#FFAF00"/>
<path d="M55.6745 18.7216H37.1345V27.9053H55.6745V18.7216Z" fill="#FFAF00"/>
<path d="M55.675 27.9053H9.31958V37.089H55.675V27.9053Z" fill="#FF8205"/>
<path d="M18.5896 37.089H9.31958V46.2727H18.5896V37.089Z" fill="#FA500F"/>
<path d="M37.1316 37.0892H27.8618V46.2729H37.1316V37.0892Z" fill="#FA500F"/>
<path d="M55.6741 37.0892H46.4041V46.2729H55.6741V37.0892Z" fill="#FA500F"/>
<path d="M27.8655 46.2784H0.0499268V55.4621H27.8655V46.2784Z" fill="#E10500"/>
<path d="M64.9501 46.2784H37.1345V55.4621H64.9501V46.2784Z" fill="#E10500"/>
</svg>
