<svg width="65" height="67" viewBox="0 0 65 67" fill="none" xmlns="http://www.w3.org/2000/svg">
<path d="M60.7304 26.9656C61.4672 24.7468 61.722 22.3963 61.4778 20.0712C61.2337 17.746 60.4962 15.4998 59.3146 13.4824C55.7203 7.22591 48.4961 4.00765 41.4408 5.51992C39.4874 3.34696 36.9965 1.72626 34.2184 0.820585C31.4403 -0.0850864 28.4729 -0.243845 25.614 0.360253C22.7552 0.964352 20.1056 2.31004 17.9314 4.26217C15.7572 6.2143 14.135 8.70414 13.2276 11.4816C10.9367 11.9514 8.77257 12.9047 6.87969 14.2778C4.98681 15.6509 3.40882 17.4123 2.25118 19.4441C-1.38221 25.6907 -0.557273 33.57 4.29081 38.9289C3.55129 41.1466 3.29389 43.4967 3.53582 45.8219C3.77774 48.1471 4.51342 50.3939 5.69365 52.4118C9.29251 58.6706 16.5212 61.8886 23.5803 60.3743C25.1324 62.122 27.0394 63.5185 29.1741 64.4706C31.3087 65.4226 33.6219 65.9083 35.9593 65.8953C43.1908 65.9016 49.5976 61.2333 51.8066 54.3474C54.097 53.8768 56.2608 52.9232 58.1535 51.5501C60.0463 50.177 61.6244 48.4161 62.7827 46.3849C66.3722 40.1494 65.5439 32.3129 60.7304 26.9656ZM35.9593 61.5827C33.0728 61.5873 30.2768 60.5756 28.0615 58.725L28.4513 58.5041L41.5706 50.9313C41.8971 50.7398 42.1682 50.4667 42.3573 50.1387C42.5464 49.8108 42.6469 49.4393 42.6489 49.0608V30.5637L48.1955 33.7721C48.2509 33.8002 48.2895 33.8533 48.2994 33.915V49.2426C48.2851 56.0518 42.7685 61.5685 35.9593 61.5827ZM9.4347 50.2559C7.98711 47.7563 7.46735 44.8263 7.96687 41.9814L8.35636 42.2152L21.4889 49.7882C21.8138 49.9789 22.1838 50.0794 22.5605 50.0794C22.9373 50.0794 23.3072 49.9789 23.6321 49.7882L39.6742 40.5397V46.9434C39.6727 46.9766 39.6637 47.009 39.648 47.0383C39.6323 47.0675 39.6101 47.0928 39.5833 47.1123L26.2951 54.7762C20.39 58.178 12.8457 56.1552 9.4347 50.2559ZM5.97929 21.6785C7.43693 19.1629 9.73768 17.2441 12.4742 16.2619V31.8492C12.4693 32.2258 12.5655 32.5969 12.7528 32.9236C12.9402 33.2504 13.2118 33.5208 13.5393 33.7068L29.5035 42.9165L23.9569 46.1249C23.9269 46.1408 23.8934 46.1491 23.8595 46.1491C23.8255 46.1491 23.7921 46.1408 23.7621 46.1249L10.4998 38.4744C4.60642 35.0584 2.58532 27.5199 5.97929 21.6138V21.6785ZM51.5468 32.2651L35.5304 22.9645L41.0643 19.7691C41.0943 19.7532 41.1278 19.7449 41.1618 19.7449C41.1958 19.7449 41.2293 19.7532 41.2593 19.7691L54.5216 27.433C56.5494 28.6031 58.2025 30.3258 59.2879 32.4002C60.3734 34.4745 60.8463 36.8148 60.6515 39.1479C60.4568 41.4809 59.6023 43.7104 58.188 45.576C56.7736 47.4417 54.8578 48.8665 52.664 49.6841V34.0966C52.6525 33.7206 52.5435 33.3542 52.3476 33.0331C52.1518 32.712 51.8758 32.4474 51.5468 32.2651ZM57.0673 23.9649L56.6775 23.7308L43.5711 16.0931C43.2442 15.9013 42.8721 15.8001 42.493 15.8001C42.114 15.8001 41.7419 15.9013 41.415 16.0931L25.3856 25.3419V18.9381C25.3822 18.9055 25.3876 18.8727 25.4013 18.843C25.4151 18.8132 25.4366 18.7878 25.4635 18.7692L38.7258 11.1183C40.7584 9.94735 43.0824 9.37935 45.426 9.48072C47.7696 9.5821 50.0359 10.3487 51.9598 11.6908C53.8837 13.0328 55.3857 14.895 56.2901 17.0594C57.1945 19.2238 57.464 21.601 57.067 23.9129V23.9649H57.0673ZM22.3593 35.3176L16.8127 32.1222C16.785 32.1054 16.7613 32.0828 16.7433 32.0558C16.7253 32.0289 16.7135 31.9983 16.7086 31.9663V16.6778C16.7117 14.3325 17.3824 12.0364 18.6423 10.0582C19.9021 8.07996 21.6992 6.50127 23.8232 5.50669C25.9472 4.51211 28.3105 4.14276 30.6368 4.44181C32.963 4.74086 35.156 5.69596 36.9594 7.19544L36.5697 7.41634L23.4503 14.9891C23.1238 15.1806 22.8528 15.4538 22.6638 15.7817C22.4748 16.1096 22.3743 16.4811 22.3722 16.8596L22.3593 35.3178V35.3176ZM25.3727 28.8227L32.5171 24.7051L39.6742 28.8229V37.0581L32.543 41.176L25.3859 37.0581L25.3727 28.8227Z" fill="black"/>
</svg>
