<svg width="65" height="65" viewBox="0 0 65 65" fill="none" xmlns="http://www.w3.org/2000/svg">
<g clip-path="url(#clip0_5_403)">
<path d="M8.96135 13.8556C9.87681 13.5109 10.9101 13.7696 11.5552 14.5049L19.9573 24.0814H45.0427L53.4449 14.5049C54.09 13.7696 55.1231 13.5109 56.0386 13.8556C56.9541 14.2003 57.5602 15.0761 57.5602 16.0543V37.1988H65V41.8976H52.8614V22.2945L47.8729 27.9803C47.4269 28.4887 46.7834 28.7802 46.1069 28.7802H18.8931C18.2167 28.7802 17.5731 28.4887 17.127 27.9803L12.1386 22.2945V41.8976H0V37.1988H7.43976V16.0543C7.43976 15.0761 8.04587 14.2003 8.96135 13.8556Z" fill="black"/>
<path d="M52.8615 46.5966H65V51.2954H52.8615V46.5966Z" fill="black"/>
<path d="M0 46.5966H12.1386V51.2954H0V46.5966Z" fill="black"/>
<path d="M25.0602 38.7653C25.0602 40.4952 23.6578 41.8978 21.9277 41.8978C20.1976 41.8978 18.7952 40.4952 18.7952 38.7653C18.7952 37.0351 20.1976 35.6327 21.9277 35.6327C23.6578 35.6327 25.0602 37.0351 25.0602 38.7653Z" fill="black"/>
<path d="M46.2048 38.7653C46.2048 40.4952 44.8024 41.8978 43.0722 41.8978C41.3421 41.8978 39.9397 40.4952 39.9397 38.7653C39.9397 37.0351 41.3421 35.6327 43.0722 35.6327C44.8024 35.6327 46.2048 37.0351 46.2048 38.7653Z" fill="black"/>
</g>
<defs>
<clipPath id="clip0_5_403">
<rect width="65" height="65" fill="white"/>
</clipPath>
</defs>
</svg>
