<svg width="65" height="65" viewBox="0 0 65 65" fill="none" xmlns="http://www.w3.org/2000/svg">
<rect width="65" height="65" fill="#424CE9"/>
<path d="M40.9279 23.7496C39.7385 14.9222 36.739 7.54465 32.1105 7.54465C27.4951 7.54465 24.4827 14.9222 23.2932 23.7496C14.3982 24.9301 6.96423 27.9067 6.96423 32.5C6.96423 37.0805 14.3982 40.07 23.2932 41.2504C24.4827 50.0779 27.4821 57.4554 32.1105 57.4554C36.7261 57.4554 39.7385 50.0779 40.9279 41.2504C49.8229 40.07 57.2569 37.0933 57.2569 32.5C57.2569 27.9067 49.8229 24.9172 40.9279 23.7496ZM23.0088 38.6586C14.4887 37.4398 9.51118 34.6427 9.51118 32.4871C9.51118 30.3317 14.4758 27.5346 23.0088 26.3157C22.8148 28.3558 22.7243 30.4343 22.7243 32.4871C22.7243 34.5401 22.8148 36.6315 23.0088 38.6586ZM32.1105 10.0594C34.2826 10.0594 37.101 14.9863 38.3293 23.4544C36.2735 23.262 34.1792 23.1723 32.1105 23.1723C30.042 23.1723 27.9475 23.2749 25.8919 23.4544C27.12 14.9992 29.9385 10.0594 32.1105 10.0594ZM41.2124 38.6586C40.7986 38.7228 39.0662 38.9153 38.6395 38.9666C38.6008 39.4028 38.3939 41.1093 38.3293 41.5199C37.101 49.9751 34.2826 54.9149 32.1105 54.9149C29.9385 54.9149 27.12 49.988 25.8919 41.5199C25.8272 41.1093 25.6333 39.39 25.5815 38.9666C25.3877 36.965 25.2584 34.8095 25.2584 32.4871C25.2584 30.1649 25.3747 28.0222 25.5815 26.0078C27.5985 25.8153 29.7704 25.687 32.1105 25.687C34.4506 25.687 36.6098 25.8025 38.6395 26.0078C39.0791 26.0462 40.7986 26.2515 41.2124 26.3157C49.7324 27.5346 54.71 30.3317 54.71 32.4871C54.71 34.6427 49.7324 37.4398 41.2124 38.6586Z" fill="white"/>
</svg>
